<svg xmlns="http://www.w3.org/2000/svg" viewBox="0 0 16 16"><path fill="white" d="M 7.976563 1.019531 C 7.863281 1.027344 7.757813 1.074219 7.671875 1.148438 L 6.464844 2.242188 L 4.871094 1.898438 C 4.621094 1.847656 4.367188 1.992188 4.289063 2.234375 L 3.789063 3.789063 L 2.234375 4.289063 C 1.992188 4.367188 1.847656 4.617188 1.898438 4.867188 L 2.242188 6.464844 L 1.148438 7.671875 C 0.976563 7.863281 0.976563 8.15625 1.148438 8.34375 L 2.242188 9.554688 L 1.898438 11.152344 C 1.847656 11.402344 1.992188 11.652344 2.234375 11.730469 L 3.789063 12.230469 L 4.289063 13.78125 C 4.367188 14.027344 4.617188 14.171875 4.867188 14.121094 L 6.464844 13.777344 L 7.671875 14.871094 C 7.863281 15.042969 8.15625 15.042969 8.34375 14.871094 L 9.554688 13.777344 L 11.152344 14.121094 C 11.402344 14.171875 11.652344 14.027344 11.730469 13.78125 L 12.230469 12.230469 L 13.78125 11.730469 C 14.027344 11.652344 14.171875 11.402344 14.121094 11.152344 L 13.777344 9.554688 L 14.871094 8.34375 C 15.042969 8.15625 15.042969 7.863281 14.871094 7.671875 L 13.777344 6.464844 L 14.121094 4.867188 C 14.171875 4.617188 14.027344 4.367188 13.78125 4.289063 L 12.230469 3.789063 L 11.730469 2.234375 C 11.652344 1.992188 11.402344 1.847656 11.152344 1.898438 L 9.554688 2.242188 L 8.34375 1.148438 C 8.257813 1.070313 8.144531 1.023438 8.027344 1.019531 C 8.011719 1.019531 7.992188 1.019531 7.976563 1.019531 Z M 8.007813 2.195313 L 9.074219 3.15625 C 9.195313 3.265625 9.359375 3.308594 9.515625 3.273438 L 10.917969 2.972656 L 11.359375 4.339844 C 11.40625 4.492188 11.527344 4.613281 11.679688 4.664063 L 13.046875 5.101563 L 12.746094 6.507813 C 12.710938 6.664063 12.757813 6.824219 12.863281 6.945313 L 13.828125 8.007813 L 12.863281 9.074219 C 12.753906 9.195313 12.710938 9.359375 12.746094 9.515625 L 13.046875 10.917969 L 11.679688 11.359375 C 11.527344 11.40625 11.40625 11.527344 11.359375 11.679688 L 10.917969 13.046875 L 9.515625 12.746094 C 9.359375 12.710938 9.195313 12.753906 9.074219 12.863281 L 8.007813 13.828125 L 6.945313 12.863281 C 6.824219 12.757813 6.664063 12.710938 6.507813 12.746094 L 5.101563 13.046875 L 4.664063 11.679688 C 4.613281 11.527344 4.492188 11.40625 4.339844 11.359375 L 2.976563 10.917969 L 3.273438 9.515625 C 3.308594 9.359375 3.265625 9.195313 3.15625 9.074219 L 2.195313 8.007813 L 3.15625 6.945313 C 3.265625 6.828125 3.308594 6.664063 3.273438 6.507813 L 2.976563 5.101563 L 4.339844 4.664063 C 4.492188 4.613281 4.613281 4.492188 4.664063 4.339844 L 5.101563 2.972656 L 6.503906 3.273438 C 6.660156 3.308594 6.824219 3.265625 6.945313 3.15625 Z M 10.652344 5.640625 L 7.496094 8.683594 L 5.71875 7.011719 L 5.03125 7.738281 L 7.503906 10.066406 L 11.347656 6.359375 Z"></path></svg>