<svg xmlns="http://www.w3.org/2000/svg" viewBox="0 0 24 24"><path fill="white" d="M 12 5.109375 L 13.542969 8.742188 L 14.015625 9.84375 L 15.210938 9.949219 L 19.140625 10.296875 L 16.164063 12.886719 L 15.257813 13.675781 L 15.527344 14.84375 L 16.414063 18.691406 L 13.027344 16.660156 L 12 16.042969 L 10.972656 16.660156 L 7.585938 18.691406 L 8.472656 14.84375 L 8.742188 13.675781 L 7.835938 12.886719 L 4.859375 10.296875 L 8.789063 9.953125 L 9.984375 9.847656 L 10.457031 8.742188 L 12 5.109375 M 12 0 L 8.613281 7.960938 L 0 8.71875 L 6.523438 14.398438 L 4.585938 22.824219 L 12 18.378906 L 19.414063 22.828125 L 17.476563 14.398438 L 24 8.71875 L 15.386719 7.960938 Z"></path></svg>